<?xml version="1.0" encoding="UTF-8" standalone="no"?>
<!DOCTYPE svg PUBLIC "-//W3C//DTD SVG 1.1//EN"
 "http://www.w3.org/Graphics/SVG/1.1/DTD/svg11.dtd">
<!-- Generated by graphviz version 2.40.1 (20161225.0304)
 -->
<!-- Title: G Pages: 1 -->
<svg width="1260pt" height="2198pt"
 viewBox="0.00 0.00 1259.58 2198.00" xmlns="http://www.w3.org/2000/svg" xmlns:xlink="http://www.w3.org/1999/xlink">
<g id="graph0" class="graph" transform="scale(1 1) rotate(0) translate(4 2194)">
<title>G</title>
<!-- 293 -->
<g id="node1" class="node">
<title>293</title>
<polygon fill="#ffffff" stroke="#000000" points="923.5,-724 789.5,-724 789.5,-491 923.5,-491 923.5,-724"/>
<text text-anchor="start" x="797.5" y="-708.8" font-family="arial" font-size="14.00" fill="#000000">293: JUMPDEST</text>
<text text-anchor="start" x="797.5" y="-693.8" font-family="arial" font-size="14.00" fill="#000000">294: PUSH1 0x00</text>
<text text-anchor="start" x="797.5" y="-678.8" font-family="arial" font-size="14.00" fill="#000000">296: DUP1</text>
<text text-anchor="start" x="797.5" y="-663.8" font-family="arial" font-size="14.00" fill="#000000">297: DUP3</text>
<text text-anchor="start" x="797.5" y="-648.8" font-family="arial" font-size="14.00" fill="#000000">298: DUP5</text>
<text text-anchor="start" x="797.5" y="-633.8" font-family="arial" font-size="14.00" fill="#000000">299: SWAP2</text>
<text text-anchor="start" x="797.5" y="-618.8" font-family="arial" font-size="14.00" fill="#000000">300: POP</text>
<text text-anchor="start" x="797.5" y="-603.8" font-family="arial" font-size="14.00" fill="#000000">301: SWAP2</text>
<text text-anchor="start" x="797.5" y="-588.8" font-family="arial" font-size="14.00" fill="#000000">302: POP</text>
<text text-anchor="start" x="797.5" y="-573.8" font-family="arial" font-size="14.00" fill="#000000">303: SWAP3</text>
<text text-anchor="start" x="797.5" y="-558.8" font-family="arial" font-size="14.00" fill="#000000">304: POP</text>
<text text-anchor="start" x="797.5" y="-543.8" font-family="arial" font-size="14.00" fill="#000000">305: SWAP3</text>
<text text-anchor="start" x="797.5" y="-528.8" font-family="arial" font-size="14.00" fill="#000000">306: SWAP1</text>
<text text-anchor="start" x="797.5" y="-513.8" font-family="arial" font-size="14.00" fill="#000000">307: POP</text>
<text text-anchor="start" x="797.5" y="-498.8" font-family="arial" font-size="14.00" fill="#000000">308: JUMP</text>
</g>
<!-- 181 -->
<g id="node19" class="node">
<title>181</title>
<polygon fill="#fffacd" stroke="#dc143c" points="1130,-455 747,-455 747,-72 1130,-72 1130,-455"/>
<polyline fill="none" stroke="#dc143c" points="759,-455 747,-443 "/>
<polyline fill="none" stroke="#dc143c" points="747,-84 759,-72 "/>
<polyline fill="none" stroke="#dc143c" points="1118,-72 1130,-84 "/>
<polyline fill="none" stroke="#dc143c" points="1130,-443 1118,-455 "/>
<text text-anchor="start" x="755" y="-439.8" font-family="arial" font-size="14.00" fill="#000000">181: JUMPDEST</text>
<text text-anchor="start" x="755" y="-424.8" font-family="arial" font-size="14.00" fill="#000000">182: PUSH1 0x40</text>
<text text-anchor="start" x="755" y="-409.8" font-family="arial" font-size="14.00" fill="#000000">184: MLOAD</text>
<text text-anchor="start" x="755" y="-394.8" font-family="arial" font-size="14.00" fill="#000000">185: DUP1</text>
<text text-anchor="start" x="755" y="-379.8" font-family="arial" font-size="14.00" fill="#000000">186: DUP4</text>
<text text-anchor="start" x="755" y="-364.8" font-family="arial" font-size="14.00" fill="#000000">187: DUP2</text>
<text text-anchor="start" x="755" y="-349.8" font-family="arial" font-size="14.00" fill="#000000">188: MSTORE</text>
<text text-anchor="start" x="755" y="-334.8" font-family="arial" font-size="14.00" fill="#000000">189: PUSH1 0x20</text>
<text text-anchor="start" x="755" y="-319.8" font-family="arial" font-size="14.00" fill="#000000">191: ADD</text>
<text text-anchor="start" x="755" y="-304.8" font-family="arial" font-size="14.00" fill="#000000">192: DUP3</text>
<text text-anchor="start" x="755" y="-289.8" font-family="arial" font-size="14.00" fill="#000000">193: DUP2</text>
<text text-anchor="start" x="755" y="-274.8" font-family="arial" font-size="14.00" fill="#000000">194: MSTORE</text>
<text text-anchor="start" x="755" y="-259.8" font-family="arial" font-size="14.00" fill="#000000">195: PUSH1 0x20</text>
<text text-anchor="start" x="755" y="-244.8" font-family="arial" font-size="14.00" fill="#000000">197: ADD</text>
<text text-anchor="start" x="755" y="-229.8" font-family="arial" font-size="14.00" fill="#000000">198: SWAP3</text>
<text text-anchor="start" x="755" y="-214.8" font-family="arial" font-size="14.00" fill="#000000">199: POP</text>
<text text-anchor="start" x="755" y="-199.8" font-family="arial" font-size="14.00" fill="#000000">200: POP</text>
<text text-anchor="start" x="755" y="-184.8" font-family="arial" font-size="14.00" fill="#000000">201: POP</text>
<text text-anchor="start" x="755" y="-169.8" font-family="arial" font-size="14.00" fill="#000000">202: PUSH1 0x40</text>
<text text-anchor="start" x="755" y="-154.8" font-family="arial" font-size="14.00" fill="#000000">204: MLOAD</text>
<text text-anchor="start" x="755" y="-139.8" font-family="arial" font-size="14.00" fill="#000000">205: DUP1</text>
<text text-anchor="start" x="755" y="-124.8" font-family="arial" font-size="14.00" fill="#000000">206: SWAP2</text>
<text text-anchor="start" x="755" y="-109.8" font-family="arial" font-size="14.00" fill="#000000">207: SUB</text>
<text text-anchor="start" x="755" y="-94.8" font-family="arial" font-size="14.00" fill="#000000">208: SWAP1</text>
<text text-anchor="start" x="755" y="-79.8" font-family="arial" font-size="14.00" fill="#000000">209: RETURN</text>
</g>
<!-- 293&#45;&gt;181 -->
<g id="edge24" class="edge">
<title>293&#45;&gt;181</title>
<path fill="none" stroke="#000000" d="M884.3759,-490.5573C886.3662,-482.2077 888.4026,-473.6646 890.4635,-465.019"/>
<polygon fill="#000000" stroke="#000000" points="893.8853,-465.7581 892.7995,-455.219 887.0761,-464.1349 893.8853,-465.7581"/>
</g>
<!-- 43 -->
<g id="node2" class="node">
<title>43</title>
<polygon fill="#fffacd" stroke="#000000" points="802.5,-1680 632.5,-1680 632.5,-1597 802.5,-1597 802.5,-1680"/>
<text text-anchor="start" x="640.5" y="-1664.8" font-family="arial" font-size="14.00" fill="#000000">43: DUP1</text>
<text text-anchor="start" x="640.5" y="-1649.8" font-family="arial" font-size="14.00" fill="#000000">44: PUSH4 0xd96073cf</text>
<text text-anchor="start" x="640.5" y="-1634.8" font-family="arial" font-size="14.00" fill="#000000">49: EQ</text>
<text text-anchor="start" x="640.5" y="-1619.8" font-family="arial" font-size="14.00" fill="#000000">50: PUSH2 0x007f</text>
<text text-anchor="start" x="640.5" y="-1604.8" font-family="arial" font-size="14.00" fill="#000000">53: JUMPI</text>
</g>
<!-- 54 -->
<g id="node9" class="node">
<title>54</title>
<polygon fill="#fffacd" stroke="#000000" points="494.5,-1546 324.5,-1546 324.5,-1463 494.5,-1463 494.5,-1546"/>
<text text-anchor="start" x="332.5" y="-1530.8" font-family="arial" font-size="14.00" fill="#000000">54: DUP1</text>
<text text-anchor="start" x="332.5" y="-1515.8" font-family="arial" font-size="14.00" fill="#000000">55: PUSH4 0xe7a721cf</text>
<text text-anchor="start" x="332.5" y="-1500.8" font-family="arial" font-size="14.00" fill="#000000">60: EQ</text>
<text text-anchor="start" x="332.5" y="-1485.8" font-family="arial" font-size="14.00" fill="#000000">61: PUSH2 0x00d2</text>
<text text-anchor="start" x="332.5" y="-1470.8" font-family="arial" font-size="14.00" fill="#000000">64: JUMPI</text>
</g>
<!-- 43&#45;&gt;54 -->
<g id="edge7" class="edge">
<title>43&#45;&gt;54</title>
<path fill="none" stroke="#000000" d="M632.1138,-1601.3515C592.3093,-1584.0339 544.8175,-1563.3719 503.9429,-1545.5888"/>
<polygon fill="#000000" stroke="#000000" points="505.0844,-1542.2686 494.5183,-1541.4885 502.2918,-1548.6874 505.0844,-1542.2686"/>
</g>
<!-- 127 -->
<g id="node24" class="node">
<title>127</title>
<polygon fill="#fffacd" stroke="#000000" points="795,-1412 640,-1412 640,-1224 795,-1224 795,-1412"/>
<text text-anchor="start" x="648" y="-1396.8" font-family="arial" font-size="14.00" fill="#000000">127: JUMPDEST</text>
<text text-anchor="start" x="648" y="-1381.8" font-family="arial" font-size="14.00" fill="#000000">128: PUSH2 0x00b5</text>
<text text-anchor="start" x="648" y="-1366.8" font-family="arial" font-size="14.00" fill="#000000">131: PUSH1 0x04</text>
<text text-anchor="start" x="648" y="-1351.8" font-family="arial" font-size="14.00" fill="#000000">133: DUP1</text>
<text text-anchor="start" x="648" y="-1336.8" font-family="arial" font-size="14.00" fill="#000000">134: CALLDATASIZE</text>
<text text-anchor="start" x="648" y="-1321.8" font-family="arial" font-size="14.00" fill="#000000">135: SUB</text>
<text text-anchor="start" x="648" y="-1306.8" font-family="arial" font-size="14.00" fill="#000000">136: PUSH1 0x40</text>
<text text-anchor="start" x="648" y="-1291.8" font-family="arial" font-size="14.00" fill="#000000">138: DUP2</text>
<text text-anchor="start" x="648" y="-1276.8" font-family="arial" font-size="14.00" fill="#000000">139: LT</text>
<text text-anchor="start" x="648" y="-1261.8" font-family="arial" font-size="14.00" fill="#000000">140: ISZERO</text>
<text text-anchor="start" x="648" y="-1246.8" font-family="arial" font-size="14.00" fill="#000000">141: PUSH2 0x0095</text>
<text text-anchor="start" x="648" y="-1231.8" font-family="arial" font-size="14.00" fill="#000000">144: JUMPI</text>
</g>
<!-- 43&#45;&gt;127 -->
<g id="edge31" class="edge">
<title>43&#45;&gt;127</title>
<path fill="none" stroke="#000000" d="M717.5,-1596.9288C717.5,-1552.8982 717.5,-1481.6727 717.5,-1422.2189"/>
<polygon fill="#000000" stroke="#000000" points="721.0001,-1422.0262 717.5,-1412.0262 714.0001,-1422.0263 721.0001,-1422.0262"/>
</g>
<!-- 323 -->
<g id="node3" class="node">
<title>323</title>
<polygon fill="#dc143c" stroke="#000000" points="728.5,-36 594.5,-36 594.5,0 728.5,0 728.5,-36"/>
<text text-anchor="start" x="602.5" y="-14.3" font-family="arial" font-size="14.00" fill="#000000">323: EXIT BLOCK</text>
</g>
<!-- 283 -->
<g id="node4" class="node">
<title>283</title>
<polygon fill="#ffffff" stroke="#000000" points="1051,-1561 904,-1561 904,-1448 1051,-1448 1051,-1561"/>
<text text-anchor="start" x="912" y="-1545.8" font-family="arial" font-size="14.00" fill="#000000">283: JUMPDEST</text>
<text text-anchor="start" x="912" y="-1530.8" font-family="arial" font-size="14.00" fill="#000000">284: PUSH1 0x00</text>
<text text-anchor="start" x="912" y="-1515.8" font-family="arial" font-size="14.00" fill="#000000">286: PUSH2 0xcccc</text>
<text text-anchor="start" x="912" y="-1500.8" font-family="arial" font-size="14.00" fill="#000000">289: SWAP1</text>
<text text-anchor="start" x="912" y="-1485.8" font-family="arial" font-size="14.00" fill="#000000">290: POP</text>
<text text-anchor="start" x="912" y="-1470.8" font-family="arial" font-size="14.00" fill="#000000">291: SWAP1</text>
<text text-anchor="start" x="912" y="-1455.8" font-family="arial" font-size="14.00" fill="#000000">292: JUMP</text>
</g>
<!-- 105 -->
<g id="node13" class="node">
<title>105</title>
<polygon fill="#fffacd" stroke="#dc143c" points="1166,-1120.5 873,-1120.5 873,-827.5 1166,-827.5 1166,-1120.5"/>
<polyline fill="none" stroke="#dc143c" points="885,-1120.5 873,-1108.5 "/>
<polyline fill="none" stroke="#dc143c" points="873,-839.5 885,-827.5 "/>
<polyline fill="none" stroke="#dc143c" points="1154,-827.5 1166,-839.5 "/>
<polyline fill="none" stroke="#dc143c" points="1166,-1108.5 1154,-1120.5 "/>
<text text-anchor="start" x="881" y="-1105.3" font-family="arial" font-size="14.00" fill="#000000">105: JUMPDEST</text>
<text text-anchor="start" x="881" y="-1090.3" font-family="arial" font-size="14.00" fill="#000000">106: PUSH1 0x40</text>
<text text-anchor="start" x="881" y="-1075.3" font-family="arial" font-size="14.00" fill="#000000">108: MLOAD</text>
<text text-anchor="start" x="881" y="-1060.3" font-family="arial" font-size="14.00" fill="#000000">109: DUP1</text>
<text text-anchor="start" x="881" y="-1045.3" font-family="arial" font-size="14.00" fill="#000000">110: DUP3</text>
<text text-anchor="start" x="881" y="-1030.3" font-family="arial" font-size="14.00" fill="#000000">111: DUP2</text>
<text text-anchor="start" x="881" y="-1015.3" font-family="arial" font-size="14.00" fill="#000000">112: MSTORE</text>
<text text-anchor="start" x="881" y="-1000.3" font-family="arial" font-size="14.00" fill="#000000">113: PUSH1 0x20</text>
<text text-anchor="start" x="881" y="-985.3" font-family="arial" font-size="14.00" fill="#000000">115: ADD</text>
<text text-anchor="start" x="881" y="-970.3" font-family="arial" font-size="14.00" fill="#000000">116: SWAP2</text>
<text text-anchor="start" x="881" y="-955.3" font-family="arial" font-size="14.00" fill="#000000">117: POP</text>
<text text-anchor="start" x="881" y="-940.3" font-family="arial" font-size="14.00" fill="#000000">118: POP</text>
<text text-anchor="start" x="881" y="-925.3" font-family="arial" font-size="14.00" fill="#000000">119: PUSH1 0x40</text>
<text text-anchor="start" x="881" y="-910.3" font-family="arial" font-size="14.00" fill="#000000">121: MLOAD</text>
<text text-anchor="start" x="881" y="-895.3" font-family="arial" font-size="14.00" fill="#000000">122: DUP1</text>
<text text-anchor="start" x="881" y="-880.3" font-family="arial" font-size="14.00" fill="#000000">123: SWAP2</text>
<text text-anchor="start" x="881" y="-865.3" font-family="arial" font-size="14.00" fill="#000000">124: SUB</text>
<text text-anchor="start" x="881" y="-850.3" font-family="arial" font-size="14.00" fill="#000000">125: SWAP1</text>
<text text-anchor="start" x="881" y="-835.3" font-family="arial" font-size="14.00" fill="#000000">126: RETURN</text>
</g>
<!-- 283&#45;&gt;105 -->
<g id="edge13" class="edge">
<title>283&#45;&gt;105</title>
<path fill="none" stroke="#000000" d="M981.9748,-1447.9786C987.9078,-1373.039 998.6141,-1237.8094 1007.0766,-1130.9195"/>
<polygon fill="#000000" stroke="#000000" points="1010.5881,-1130.9118 1007.8883,-1120.6668 1003.6099,-1130.3593 1010.5881,-1130.9118"/>
</g>
<!-- 26 -->
<g id="node5" class="node">
<title>26</title>
<polygon fill="#fffacd" stroke="#000000" points="941.5,-1859 767.5,-1859 767.5,-1716 941.5,-1716 941.5,-1859"/>
<text text-anchor="start" x="775.5" y="-1843.8" font-family="arial" font-size="14.00" fill="#000000">26: PUSH1 0x00</text>
<text text-anchor="start" x="775.5" y="-1828.8" font-family="arial" font-size="14.00" fill="#000000">28: CALLDATALOAD</text>
<text text-anchor="start" x="775.5" y="-1813.8" font-family="arial" font-size="14.00" fill="#000000">29: PUSH1 0xe0</text>
<text text-anchor="start" x="775.5" y="-1798.8" font-family="arial" font-size="14.00" fill="#000000">31: SHR</text>
<text text-anchor="start" x="775.5" y="-1783.8" font-family="arial" font-size="14.00" fill="#000000">32: DUP1</text>
<text text-anchor="start" x="775.5" y="-1768.8" font-family="arial" font-size="14.00" fill="#000000">33: PUSH4 0x2a1bbc34</text>
<text text-anchor="start" x="775.5" y="-1753.8" font-family="arial" font-size="14.00" fill="#000000">38: EQ</text>
<text text-anchor="start" x="775.5" y="-1738.8" font-family="arial" font-size="14.00" fill="#000000">39: PUSH2 0x0061</text>
<text text-anchor="start" x="775.5" y="-1723.8" font-family="arial" font-size="14.00" fill="#000000">42: JUMPI</text>
</g>
<!-- 26&#45;&gt;43 -->
<g id="edge4" class="edge">
<title>26&#45;&gt;43</title>
<path fill="none" stroke="#000000" d="M788.4078,-1715.6187C779.6408,-1706.0838 770.8213,-1696.4917 762.5244,-1687.4681"/>
<polygon fill="#000000" stroke="#000000" points="765.0355,-1685.0281 755.6906,-1680.0357 759.8826,-1689.766 765.0355,-1685.0281"/>
</g>
<!-- 97 -->
<g id="node17" class="node">
<title>97</title>
<polygon fill="#fffacd" stroke="#000000" points="1035,-1672.5 886,-1672.5 886,-1604.5 1035,-1604.5 1035,-1672.5"/>
<text text-anchor="start" x="894" y="-1657.3" font-family="arial" font-size="14.00" fill="#000000">97: JUMPDEST</text>
<text text-anchor="start" x="894" y="-1642.3" font-family="arial" font-size="14.00" fill="#000000">98: PUSH2 0x0069</text>
<text text-anchor="start" x="894" y="-1627.3" font-family="arial" font-size="14.00" fill="#000000">101: PUSH2 0x011b</text>
<text text-anchor="start" x="894" y="-1612.3" font-family="arial" font-size="14.00" fill="#000000">104: JUMP</text>
</g>
<!-- 26&#45;&gt;97 -->
<g id="edge15" class="edge">
<title>26&#45;&gt;97</title>
<path fill="none" stroke="#000000" d="M905.6371,-1715.6187C914.0755,-1703.7571 922.577,-1691.8069 930.2844,-1680.9728"/>
<polygon fill="#000000" stroke="#000000" points="933.3341,-1682.7238 936.2791,-1672.5464 927.6302,-1678.6659 933.3341,-1682.7238"/>
</g>
<!-- 228 -->
<g id="node6" class="node">
<title>228</title>
<polygon fill="#fffacd" stroke="#dc143c" points="320.5,-674.5 186.5,-674.5 186.5,-540.5 320.5,-540.5 320.5,-674.5"/>
<polyline fill="none" stroke="#dc143c" points="198.5,-674.5 186.5,-662.5 "/>
<polyline fill="none" stroke="#dc143c" points="186.5,-552.5 198.5,-540.5 "/>
<polyline fill="none" stroke="#dc143c" points="308.5,-540.5 320.5,-552.5 "/>
<polyline fill="none" stroke="#dc143c" points="320.5,-662.5 308.5,-674.5 "/>
<text text-anchor="start" x="194.5" y="-618.8" font-family="arial" font-size="14.00" fill="#000000">228: PUSH1 0x00</text>
<text text-anchor="start" x="194.5" y="-603.8" font-family="arial" font-size="14.00" fill="#000000">230: DUP1</text>
<text text-anchor="start" x="194.5" y="-588.8" font-family="arial" font-size="14.00" fill="#000000">231: REVERT</text>
</g>
<!-- 228&#45;&gt;323 -->
<g id="edge3" class="edge">
<title>228&#45;&gt;323</title>
<path fill="none" stroke="#000000" d="M215.0557,-540.2299C202.3673,-514.4306 189.8753,-484.1714 183.5,-455 165.3282,-371.8514 126.7958,-135.4708 183.5,-72 209.6723,-42.7045 455.585,-27.3017 584.091,-21.1951"/>
<polygon fill="#000000" stroke="#000000" points="584.4407,-24.6827 594.2663,-20.7194 584.1137,-17.6903 584.4407,-24.6827"/>
</g>
<!-- 69 -->
<g id="node7" class="node">
<title>69</title>
<polygon fill="#fffacd" stroke="#000000" points="394,-1805.5 275,-1805.5 275,-1769.5 394,-1769.5 394,-1805.5"/>
<text text-anchor="start" x="283" y="-1783.8" font-family="arial" font-size="14.00" fill="#000000">69: JUMPDEST</text>
</g>
<!-- 70 -->
<g id="node14" class="node">
<title>70</title>
<polygon fill="#ffa500" stroke="#000000" points="223.5,-1060.5 81.5,-1060.5 81.5,-887.5 223.5,-887.5 223.5,-1060.5"/>
<text text-anchor="start" x="89.5" y="-1045.3" font-family="arial" font-size="14.00" fill="#000000">70: JUMPDEST</text>
<text text-anchor="start" x="89.5" y="-1030.3" font-family="arial" font-size="14.00" fill="#000000">71: PUSH1 0x00</text>
<text text-anchor="start" x="89.5" y="-1015.3" font-family="arial" font-size="14.00" fill="#000000">73: PUSH2 0x8888</text>
<text text-anchor="start" x="89.5" y="-1000.3" font-family="arial" font-size="14.00" fill="#000000">76: SWAP1</text>
<text text-anchor="start" x="89.5" y="-985.3" font-family="arial" font-size="14.00" fill="#000000">77: POP</text>
<text text-anchor="start" x="89.5" y="-970.3" font-family="arial" font-size="14.00" fill="#000000">78: PUSH2 0x9999</text>
<text text-anchor="start" x="89.5" y="-955.3" font-family="arial" font-size="14.00" fill="#000000">81: DUP2</text>
<text text-anchor="start" x="89.5" y="-940.3" font-family="arial" font-size="14.00" fill="#000000">82: LT</text>
<text text-anchor="start" x="89.5" y="-925.3" font-family="arial" font-size="14.00" fill="#000000">83: ISZERO</text>
<text text-anchor="start" x="89.5" y="-910.3" font-family="arial" font-size="14.00" fill="#000000">84: PUSH2 0x005e</text>
<text text-anchor="start" x="89.5" y="-895.3" font-family="arial" font-size="14.00" fill="#000000">87: JUMPI</text>
</g>
<!-- 69&#45;&gt;70 -->
<g id="edge10" class="edge">
<title>69&#45;&gt;70</title>
<path fill="none" stroke="#000000" d="M322.8715,-1769.3239C289.9287,-1716.6594 196.1881,-1558.395 162.5,-1412 136.0569,-1297.0887 137.9728,-1160.7305 143.5982,-1071.0399"/>
<polygon fill="#000000" stroke="#000000" points="147.1024,-1071.0893 144.2637,-1060.8819 140.1174,-1070.6316 147.1024,-1071.0893"/>
</g>
<!-- 16 -->
<g id="node8" class="node">
<title>16</title>
<polygon fill="#fffacd" stroke="#000000" points="928,-2014 781,-2014 781,-1901 928,-1901 928,-2014"/>
<text text-anchor="start" x="789" y="-1998.8" font-family="arial" font-size="14.00" fill="#000000">16: JUMPDEST</text>
<text text-anchor="start" x="789" y="-1983.8" font-family="arial" font-size="14.00" fill="#000000">17: POP</text>
<text text-anchor="start" x="789" y="-1968.8" font-family="arial" font-size="14.00" fill="#000000">18: PUSH1 0x04</text>
<text text-anchor="start" x="789" y="-1953.8" font-family="arial" font-size="14.00" fill="#000000">20: CALLDATASIZE</text>
<text text-anchor="start" x="789" y="-1938.8" font-family="arial" font-size="14.00" fill="#000000">21: LT</text>
<text text-anchor="start" x="789" y="-1923.8" font-family="arial" font-size="14.00" fill="#000000">22: PUSH2 0x0045</text>
<text text-anchor="start" x="789" y="-1908.8" font-family="arial" font-size="14.00" fill="#000000">25: JUMPI</text>
</g>
<!-- 16&#45;&gt;26 -->
<g id="edge8" class="edge">
<title>16&#45;&gt;26</title>
<path fill="none" stroke="#000000" d="M854.5,-1900.8925C854.5,-1890.7915 854.5,-1880.0861 854.5,-1869.4447"/>
<polygon fill="#000000" stroke="#000000" points="858.0001,-1869.2834 854.5,-1859.2835 851.0001,-1869.2835 858.0001,-1869.2834"/>
</g>
<!-- 16&#45;&gt;69 -->
<g id="edge1" class="edge">
<title>16&#45;&gt;69</title>
<path fill="none" stroke="#000000" d="M780.8244,-1933.4138C678.8401,-1900.0727 496.2789,-1840.3892 399.2566,-1808.6704"/>
<polygon fill="#000000" stroke="#000000" points="400.1623,-1805.2843 389.5697,-1805.5036 397.9871,-1811.9378 400.1623,-1805.2843"/>
</g>
<!-- 65 -->
<g id="node18" class="node">
<title>65</title>
<polygon fill="#fffacd" stroke="#000000" points="313.5,-1337 171.5,-1337 171.5,-1299 313.5,-1299 313.5,-1337"/>
<text text-anchor="start" x="179.5" y="-1321.8" font-family="arial" font-size="14.00" fill="#000000">65: PUSH2 0x0046</text>
<text text-anchor="start" x="179.5" y="-1306.8" font-family="arial" font-size="14.00" fill="#000000">68: JUMP</text>
</g>
<!-- 54&#45;&gt;65 -->
<g id="edge16" class="edge">
<title>54&#45;&gt;65</title>
<path fill="none" stroke="#000000" d="M369.2073,-1462.5446C354.3522,-1446.8461 337.4949,-1428.7576 322.5,-1412 302.7081,-1389.8815 280.9151,-1364.1814 265.0797,-1345.2496"/>
<polygon fill="#000000" stroke="#000000" points="267.5605,-1342.7597 258.4668,-1337.3232 262.1855,-1347.244 267.5605,-1342.7597"/>
</g>
<!-- 210 -->
<g id="node23" class="node">
<title>210</title>
<polygon fill="#fffacd" stroke="#000000" points="487,-1412 332,-1412 332,-1224 487,-1224 487,-1412"/>
<text text-anchor="start" x="340" y="-1396.8" font-family="arial" font-size="14.00" fill="#000000">210: JUMPDEST</text>
<text text-anchor="start" x="340" y="-1381.8" font-family="arial" font-size="14.00" fill="#000000">211: PUSH2 0x00fe</text>
<text text-anchor="start" x="340" y="-1366.8" font-family="arial" font-size="14.00" fill="#000000">214: PUSH1 0x04</text>
<text text-anchor="start" x="340" y="-1351.8" font-family="arial" font-size="14.00" fill="#000000">216: DUP1</text>
<text text-anchor="start" x="340" y="-1336.8" font-family="arial" font-size="14.00" fill="#000000">217: CALLDATASIZE</text>
<text text-anchor="start" x="340" y="-1321.8" font-family="arial" font-size="14.00" fill="#000000">218: SUB</text>
<text text-anchor="start" x="340" y="-1306.8" font-family="arial" font-size="14.00" fill="#000000">219: PUSH1 0x20</text>
<text text-anchor="start" x="340" y="-1291.8" font-family="arial" font-size="14.00" fill="#000000">221: DUP2</text>
<text text-anchor="start" x="340" y="-1276.8" font-family="arial" font-size="14.00" fill="#000000">222: LT</text>
<text text-anchor="start" x="340" y="-1261.8" font-family="arial" font-size="14.00" fill="#000000">223: ISZERO</text>
<text text-anchor="start" x="340" y="-1246.8" font-family="arial" font-size="14.00" fill="#000000">224: PUSH2 0x00e8</text>
<text text-anchor="start" x="340" y="-1231.8" font-family="arial" font-size="14.00" fill="#000000">227: JUMPI</text>
</g>
<!-- 54&#45;&gt;210 -->
<g id="edge32" class="edge">
<title>54&#45;&gt;210</title>
<path fill="none" stroke="#000000" d="M409.5,-1462.6458C409.5,-1450.547 409.5,-1436.7696 409.5,-1422.638"/>
<polygon fill="#000000" stroke="#000000" points="413.0001,-1422.3043 409.5,-1412.3043 406.0001,-1422.3044 413.0001,-1422.3043"/>
</g>
<!-- 309 -->
<g id="node10" class="node">
<title>309</title>
<polygon fill="#ffffff" stroke="#000000" points="474.5,-709 340.5,-709 340.5,-506 474.5,-506 474.5,-709"/>
<text text-anchor="start" x="348.5" y="-693.8" font-family="arial" font-size="14.00" fill="#000000">309: JUMPDEST</text>
<text text-anchor="start" x="348.5" y="-678.8" font-family="arial" font-size="14.00" fill="#000000">310: PUSH1 0x00</text>
<text text-anchor="start" x="348.5" y="-663.8" font-family="arial" font-size="14.00" fill="#000000">312: DUP1</text>
<text text-anchor="start" x="348.5" y="-648.8" font-family="arial" font-size="14.00" fill="#000000">313: DUP3</text>
<text text-anchor="start" x="348.5" y="-633.8" font-family="arial" font-size="14.00" fill="#000000">314: DUP4</text>
<text text-anchor="start" x="348.5" y="-618.8" font-family="arial" font-size="14.00" fill="#000000">315: SWAP2</text>
<text text-anchor="start" x="348.5" y="-603.8" font-family="arial" font-size="14.00" fill="#000000">316: POP</text>
<text text-anchor="start" x="348.5" y="-588.8" font-family="arial" font-size="14.00" fill="#000000">317: SWAP2</text>
<text text-anchor="start" x="348.5" y="-573.8" font-family="arial" font-size="14.00" fill="#000000">318: POP</text>
<text text-anchor="start" x="348.5" y="-558.8" font-family="arial" font-size="14.00" fill="#000000">319: SWAP2</text>
<text text-anchor="start" x="348.5" y="-543.8" font-family="arial" font-size="14.00" fill="#000000">320: POP</text>
<text text-anchor="start" x="348.5" y="-528.8" font-family="arial" font-size="14.00" fill="#000000">321: SWAP2</text>
<text text-anchor="start" x="348.5" y="-513.8" font-family="arial" font-size="14.00" fill="#000000">322: JUMP</text>
</g>
<!-- 254 -->
<g id="node16" class="node">
<title>254</title>
<polygon fill="#fffacd" stroke="#dc143c" points="576,-455 193,-455 193,-72 576,-72 576,-455"/>
<polyline fill="none" stroke="#dc143c" points="205,-455 193,-443 "/>
<polyline fill="none" stroke="#dc143c" points="193,-84 205,-72 "/>
<polyline fill="none" stroke="#dc143c" points="564,-72 576,-84 "/>
<polyline fill="none" stroke="#dc143c" points="576,-443 564,-455 "/>
<text text-anchor="start" x="201" y="-439.8" font-family="arial" font-size="14.00" fill="#000000">254: JUMPDEST</text>
<text text-anchor="start" x="201" y="-424.8" font-family="arial" font-size="14.00" fill="#000000">255: PUSH1 0x40</text>
<text text-anchor="start" x="201" y="-409.8" font-family="arial" font-size="14.00" fill="#000000">257: MLOAD</text>
<text text-anchor="start" x="201" y="-394.8" font-family="arial" font-size="14.00" fill="#000000">258: DUP1</text>
<text text-anchor="start" x="201" y="-379.8" font-family="arial" font-size="14.00" fill="#000000">259: DUP4</text>
<text text-anchor="start" x="201" y="-364.8" font-family="arial" font-size="14.00" fill="#000000">260: DUP2</text>
<text text-anchor="start" x="201" y="-349.8" font-family="arial" font-size="14.00" fill="#000000">261: MSTORE</text>
<text text-anchor="start" x="201" y="-334.8" font-family="arial" font-size="14.00" fill="#000000">262: PUSH1 0x20</text>
<text text-anchor="start" x="201" y="-319.8" font-family="arial" font-size="14.00" fill="#000000">264: ADD</text>
<text text-anchor="start" x="201" y="-304.8" font-family="arial" font-size="14.00" fill="#000000">265: DUP3</text>
<text text-anchor="start" x="201" y="-289.8" font-family="arial" font-size="14.00" fill="#000000">266: DUP2</text>
<text text-anchor="start" x="201" y="-274.8" font-family="arial" font-size="14.00" fill="#000000">267: MSTORE</text>
<text text-anchor="start" x="201" y="-259.8" font-family="arial" font-size="14.00" fill="#000000">268: PUSH1 0x20</text>
<text text-anchor="start" x="201" y="-244.8" font-family="arial" font-size="14.00" fill="#000000">270: ADD</text>
<text text-anchor="start" x="201" y="-229.8" font-family="arial" font-size="14.00" fill="#000000">271: SWAP3</text>
<text text-anchor="start" x="201" y="-214.8" font-family="arial" font-size="14.00" fill="#000000">272: POP</text>
<text text-anchor="start" x="201" y="-199.8" font-family="arial" font-size="14.00" fill="#000000">273: POP</text>
<text text-anchor="start" x="201" y="-184.8" font-family="arial" font-size="14.00" fill="#000000">274: POP</text>
<text text-anchor="start" x="201" y="-169.8" font-family="arial" font-size="14.00" fill="#000000">275: PUSH1 0x40</text>
<text text-anchor="start" x="201" y="-154.8" font-family="arial" font-size="14.00" fill="#000000">277: MLOAD</text>
<text text-anchor="start" x="201" y="-139.8" font-family="arial" font-size="14.00" fill="#000000">278: DUP1</text>
<text text-anchor="start" x="201" y="-124.8" font-family="arial" font-size="14.00" fill="#000000">279: SWAP2</text>
<text text-anchor="start" x="201" y="-109.8" font-family="arial" font-size="14.00" fill="#000000">280: SUB</text>
<text text-anchor="start" x="201" y="-94.8" font-family="arial" font-size="14.00" fill="#000000">281: SWAP1</text>
<text text-anchor="start" x="201" y="-79.8" font-family="arial" font-size="14.00" fill="#000000">282: RETURN</text>
</g>
<!-- 309&#45;&gt;254 -->
<g id="edge27" class="edge">
<title>309&#45;&gt;254</title>
<path fill="none" stroke="#000000" d="M400.6926,-505.6849C399.8292,-492.7715 398.9232,-479.2211 397.9995,-465.405"/>
<polygon fill="#000000" stroke="#000000" points="401.4835,-465.0474 397.324,-455.3032 394.4991,-465.5144 401.4835,-465.0474"/>
</g>
<!-- 94 -->
<g id="node11" class="node">
<title>94</title>
<polygon fill="#fffacd" stroke="#dc143c" points="137,-323 18,-323 18,-204 137,-204 137,-323"/>
<polyline fill="none" stroke="#dc143c" points="30,-323 18,-311 "/>
<polyline fill="none" stroke="#dc143c" points="18,-216 30,-204 "/>
<polyline fill="none" stroke="#dc143c" points="125,-204 137,-216 "/>
<polyline fill="none" stroke="#dc143c" points="137,-311 125,-323 "/>
<text text-anchor="start" x="26" y="-274.8" font-family="arial" font-size="14.00" fill="#000000">94: JUMPDEST</text>
<text text-anchor="start" x="26" y="-259.8" font-family="arial" font-size="14.00" fill="#000000">95: POP</text>
<text text-anchor="start" x="26" y="-244.8" font-family="arial" font-size="14.00" fill="#000000">96: STOP</text>
</g>
<!-- 94&#45;&gt;323 -->
<g id="edge14" class="edge">
<title>94&#45;&gt;323</title>
<path fill="none" stroke="#000000" d="M84.1186,-203.9879C92.31,-160.2989 110.6168,-103.3234 151.5,-72 185.0802,-46.2719 449.876,-28.983 584.0816,-21.7825"/>
<polygon fill="#000000" stroke="#000000" points="584.4979,-25.2655 594.2983,-21.2403 584.1268,-18.2753 584.4979,-25.2655"/>
</g>
<!-- 0 -->
<g id="node12" class="node">
<title>0</title>
<polygon fill="#ffd700" stroke="#000000" points="998.5,-2190 864.5,-2190 864.5,-2056 998.5,-2056 998.5,-2190"/>
<polyline fill="none" stroke="#000000" points="876.5,-2190 864.5,-2178 "/>
<polyline fill="none" stroke="#000000" points="864.5,-2068 876.5,-2056 "/>
<polyline fill="none" stroke="#000000" points="986.5,-2056 998.5,-2068 "/>
<polyline fill="none" stroke="#000000" points="998.5,-2178 986.5,-2190 "/>
<text text-anchor="start" x="872.5" y="-2171.8" font-family="arial" font-size="14.00" fill="#000000">0: PUSH1 0x80</text>
<text text-anchor="start" x="872.5" y="-2156.8" font-family="arial" font-size="14.00" fill="#000000">2: PUSH1 0x40</text>
<text text-anchor="start" x="872.5" y="-2141.8" font-family="arial" font-size="14.00" fill="#000000">4: MSTORE</text>
<text text-anchor="start" x="872.5" y="-2126.8" font-family="arial" font-size="14.00" fill="#000000">5: CALLVALUE</text>
<text text-anchor="start" x="872.5" y="-2111.8" font-family="arial" font-size="14.00" fill="#000000">6: DUP1</text>
<text text-anchor="start" x="872.5" y="-2096.8" font-family="arial" font-size="14.00" fill="#000000">7: ISZERO</text>
<text text-anchor="start" x="872.5" y="-2081.8" font-family="arial" font-size="14.00" fill="#000000">8: PUSH2 0x0010</text>
<text text-anchor="start" x="872.5" y="-2066.8" font-family="arial" font-size="14.00" fill="#000000">11: JUMPI</text>
</g>
<!-- 0&#45;&gt;16 -->
<g id="edge9" class="edge">
<title>0&#45;&gt;16</title>
<path fill="none" stroke="#000000" d="M900.1812,-2055.6848C895.2219,-2045.0256 890.0977,-2034.012 885.1539,-2023.386"/>
<polygon fill="#000000" stroke="#000000" points="888.2562,-2021.7566 880.8644,-2014.1663 881.9094,-2024.7095 888.2562,-2021.7566"/>
</g>
<!-- 12 -->
<g id="node20" class="node">
<title>12</title>
<polygon fill="#fffacd" stroke="#dc143c" points="1081,-2020 956,-2020 956,-1895 1081,-1895 1081,-2020"/>
<polyline fill="none" stroke="#dc143c" points="968,-2020 956,-2008 "/>
<polyline fill="none" stroke="#dc143c" points="956,-1907 968,-1895 "/>
<polyline fill="none" stroke="#dc143c" points="1069,-1895 1081,-1907 "/>
<polyline fill="none" stroke="#dc143c" points="1081,-2008 1069,-2020 "/>
<text text-anchor="start" x="964" y="-1968.8" font-family="arial" font-size="14.00" fill="#000000">12: PUSH1 0x00</text>
<text text-anchor="start" x="964" y="-1953.8" font-family="arial" font-size="14.00" fill="#000000">14: DUP1</text>
<text text-anchor="start" x="964" y="-1938.8" font-family="arial" font-size="14.00" fill="#000000">15: REVERT</text>
</g>
<!-- 0&#45;&gt;12 -->
<g id="edge29" class="edge">
<title>0&#45;&gt;12</title>
<path fill="none" stroke="#000000" d="M966.8862,-2055.6848C971.4601,-2046.9839 976.1581,-2038.0469 980.7681,-2029.2773"/>
<polygon fill="#000000" stroke="#000000" points="983.9764,-2030.696 985.5315,-2020.2159 977.7804,-2027.4389 983.9764,-2030.696"/>
</g>
<!-- 105&#45;&gt;323 -->
<g id="edge11" class="edge">
<title>105&#45;&gt;323</title>
<path fill="none" stroke="#000000" d="M1065.0129,-827.1893C1131.0523,-600.6461 1235.5007,-180.6015 1138.5,-72 1112.3851,-42.7619 866.9856,-27.3321 738.7476,-21.2072"/>
<polygon fill="#000000" stroke="#000000" points="738.7469,-17.7034 728.5936,-20.73 738.4182,-24.6957 738.7469,-17.7034"/>
</g>
<!-- 70&#45;&gt;94 -->
<g id="edge5" class="edge">
<title>70&#45;&gt;94</title>
<path fill="none" stroke="#000000" d="M154.3389,-887.1508C155.1763,-790.0974 152.9268,-628.5206 133.5,-491 125.9096,-437.2682 111.0219,-377.7548 98.5041,-333.0783"/>
<polygon fill="#000000" stroke="#000000" points="101.8006,-331.8734 95.7088,-323.2051 95.0654,-333.7804 101.8006,-331.8734"/>
</g>
<!-- 88 -->
<g id="node25" class="node">
<title>88</title>
<polygon fill="#fffacd" stroke="#000000" points="125,-649 0,-649 0,-566 125,-566 125,-649"/>
<text text-anchor="start" x="8" y="-633.8" font-family="arial" font-size="14.00" fill="#000000">88: PUSH1 0x01</text>
<text text-anchor="start" x="8" y="-618.8" font-family="arial" font-size="14.00" fill="#000000">90: DUP2</text>
<text text-anchor="start" x="8" y="-603.8" font-family="arial" font-size="14.00" fill="#000000">91: ADD</text>
<text text-anchor="start" x="8" y="-588.8" font-family="arial" font-size="14.00" fill="#000000">92: SWAP1</text>
<text text-anchor="start" x="8" y="-573.8" font-family="arial" font-size="14.00" fill="#000000">93: POP</text>
</g>
<!-- 70&#45;&gt;88 -->
<g id="edge18" class="edge">
<title>70&#45;&gt;88</title>
<path fill="none" stroke="#000000" d="M131.1713,-887.1446C113.7272,-816.1085 89.6489,-718.0562 75.127,-658.92"/>
<polygon fill="#000000" stroke="#000000" points="78.4897,-657.937 72.7058,-649.0602 71.6917,-659.6064 78.4897,-657.937"/>
</g>
<!-- 149 -->
<g id="node15" class="node">
<title>149</title>
<polygon fill="#fffacd" stroke="#000000" points="854,-1188 691,-1188 691,-760 854,-760 854,-1188"/>
<text text-anchor="start" x="699" y="-1172.8" font-family="arial" font-size="14.00" fill="#000000">149: JUMPDEST</text>
<text text-anchor="start" x="699" y="-1157.8" font-family="arial" font-size="14.00" fill="#000000">150: DUP2</text>
<text text-anchor="start" x="699" y="-1142.8" font-family="arial" font-size="14.00" fill="#000000">151: ADD</text>
<text text-anchor="start" x="699" y="-1127.8" font-family="arial" font-size="14.00" fill="#000000">152: SWAP1</text>
<text text-anchor="start" x="699" y="-1112.8" font-family="arial" font-size="14.00" fill="#000000">153: DUP1</text>
<text text-anchor="start" x="699" y="-1097.8" font-family="arial" font-size="14.00" fill="#000000">154: DUP1</text>
<text text-anchor="start" x="699" y="-1082.8" font-family="arial" font-size="14.00" fill="#000000">155: CALLDATALOAD</text>
<text text-anchor="start" x="699" y="-1067.8" font-family="arial" font-size="14.00" fill="#000000">156: SWAP1</text>
<text text-anchor="start" x="699" y="-1052.8" font-family="arial" font-size="14.00" fill="#000000">157: PUSH1 0x20</text>
<text text-anchor="start" x="699" y="-1037.8" font-family="arial" font-size="14.00" fill="#000000">159: ADD</text>
<text text-anchor="start" x="699" y="-1022.8" font-family="arial" font-size="14.00" fill="#000000">160: SWAP1</text>
<text text-anchor="start" x="699" y="-1007.8" font-family="arial" font-size="14.00" fill="#000000">161: SWAP3</text>
<text text-anchor="start" x="699" y="-992.8" font-family="arial" font-size="14.00" fill="#000000">162: SWAP2</text>
<text text-anchor="start" x="699" y="-977.8" font-family="arial" font-size="14.00" fill="#000000">163: SWAP1</text>
<text text-anchor="start" x="699" y="-962.8" font-family="arial" font-size="14.00" fill="#000000">164: DUP1</text>
<text text-anchor="start" x="699" y="-947.8" font-family="arial" font-size="14.00" fill="#000000">165: CALLDATALOAD</text>
<text text-anchor="start" x="699" y="-932.8" font-family="arial" font-size="14.00" fill="#000000">166: SWAP1</text>
<text text-anchor="start" x="699" y="-917.8" font-family="arial" font-size="14.00" fill="#000000">167: PUSH1 0x20</text>
<text text-anchor="start" x="699" y="-902.8" font-family="arial" font-size="14.00" fill="#000000">169: ADD</text>
<text text-anchor="start" x="699" y="-887.8" font-family="arial" font-size="14.00" fill="#000000">170: SWAP1</text>
<text text-anchor="start" x="699" y="-872.8" font-family="arial" font-size="14.00" fill="#000000">171: SWAP3</text>
<text text-anchor="start" x="699" y="-857.8" font-family="arial" font-size="14.00" fill="#000000">172: SWAP2</text>
<text text-anchor="start" x="699" y="-842.8" font-family="arial" font-size="14.00" fill="#000000">173: SWAP1</text>
<text text-anchor="start" x="699" y="-827.8" font-family="arial" font-size="14.00" fill="#000000">174: POP</text>
<text text-anchor="start" x="699" y="-812.8" font-family="arial" font-size="14.00" fill="#000000">175: POP</text>
<text text-anchor="start" x="699" y="-797.8" font-family="arial" font-size="14.00" fill="#000000">176: POP</text>
<text text-anchor="start" x="699" y="-782.8" font-family="arial" font-size="14.00" fill="#000000">177: PUSH2 0x0125</text>
<text text-anchor="start" x="699" y="-767.8" font-family="arial" font-size="14.00" fill="#000000">180: JUMP</text>
</g>
<!-- 149&#45;&gt;293 -->
<g id="edge17" class="edge">
<title>149&#45;&gt;293</title>
<path fill="none" stroke="#000000" d="M821.6062,-759.745C823.5932,-751.0756 825.5583,-742.5016 827.4831,-734.1035"/>
<polygon fill="#000000" stroke="#000000" points="830.9004,-734.8599 829.723,-724.3307 824.0773,-733.296 830.9004,-734.8599"/>
</g>
<!-- 254&#45;&gt;323 -->
<g id="edge20" class="edge">
<title>254&#45;&gt;323</title>
<path fill="none" stroke="#000000" d="M576.2667,-79.6911C579.3529,-77.0948 582.4319,-74.5295 585.5,-72 598.2034,-61.5266 612.8104,-50.8508 625.8027,-41.7869"/>
<polygon fill="#000000" stroke="#000000" points="627.828,-44.6418 634.0711,-36.0817 623.8525,-38.8802 627.828,-44.6418"/>
</g>
<!-- 97&#45;&gt;283 -->
<g id="edge22" class="edge">
<title>97&#45;&gt;283</title>
<path fill="none" stroke="#000000" d="M964.8338,-1604.3394C966.1196,-1594.204 967.5745,-1582.7365 969.0282,-1571.2778"/>
<polygon fill="#000000" stroke="#000000" points="972.5147,-1571.6049 970.3012,-1561.2438 965.5703,-1570.7238 972.5147,-1571.6049"/>
</g>
<!-- 65&#45;&gt;70 -->
<g id="edge30" class="edge">
<title>65&#45;&gt;70</title>
<path fill="none" stroke="#000000" d="M237.4033,-1298.5194C226.1347,-1255.4482 198.4625,-1149.6787 177.7519,-1070.5183"/>
<polygon fill="#000000" stroke="#000000" points="181.0517,-1069.3027 175.1345,-1060.5143 174.2797,-1071.0745 181.0517,-1069.3027"/>
</g>
<!-- 181&#45;&gt;323 -->
<g id="edge23" class="edge">
<title>181&#45;&gt;323</title>
<path fill="none" stroke="#000000" d="M746.7333,-79.6911C743.6471,-77.0948 740.5681,-74.5295 737.5,-72 724.7966,-61.5266 710.1896,-50.8508 697.1973,-41.7869"/>
<polygon fill="#000000" stroke="#000000" points="699.1475,-38.8802 688.9289,-36.0817 695.172,-44.6418 699.1475,-38.8802"/>
</g>
<!-- 12&#45;&gt;323 -->
<g id="edge25" class="edge">
<title>12&#45;&gt;323</title>
<path fill="none" stroke="#000000" d="M1078.4241,-1894.7301C1129.7732,-1834.1475 1195.5,-1737.3041 1195.5,-1638.5 1195.5,-1638.5 1195.5,-1638.5 1195.5,-607.5 1195.5,-369.2806 1335.6134,-245.616 1172.5,-72 1143.4036,-41.0301 874.5478,-26.2473 738.9479,-20.712"/>
<polygon fill="#000000" stroke="#000000" points="738.7601,-17.2017 728.6278,-20.2981 738.4795,-24.1961 738.7601,-17.2017"/>
</g>
<!-- 145 -->
<g id="node21" class="node">
<title>145</title>
<polygon fill="#fffacd" stroke="#dc143c" points="728.5,-330.5 594.5,-330.5 594.5,-196.5 728.5,-196.5 728.5,-330.5"/>
<polyline fill="none" stroke="#dc143c" points="606.5,-330.5 594.5,-318.5 "/>
<polyline fill="none" stroke="#dc143c" points="594.5,-208.5 606.5,-196.5 "/>
<polyline fill="none" stroke="#dc143c" points="716.5,-196.5 728.5,-208.5 "/>
<polyline fill="none" stroke="#dc143c" points="728.5,-318.5 716.5,-330.5 "/>
<text text-anchor="start" x="602.5" y="-274.8" font-family="arial" font-size="14.00" fill="#000000">145: PUSH1 0x00</text>
<text text-anchor="start" x="602.5" y="-259.8" font-family="arial" font-size="14.00" fill="#000000">147: DUP1</text>
<text text-anchor="start" x="602.5" y="-244.8" font-family="arial" font-size="14.00" fill="#000000">148: REVERT</text>
</g>
<!-- 145&#45;&gt;323 -->
<g id="edge28" class="edge">
<title>145&#45;&gt;323</title>
<path fill="none" stroke="#000000" d="M661.5,-196.416C661.5,-147.2682 661.5,-83.0153 661.5,-46.553"/>
<polygon fill="#000000" stroke="#000000" points="665.0001,-46.1768 661.5,-36.1769 658.0001,-46.1769 665.0001,-46.1768"/>
</g>
<!-- 232 -->
<g id="node22" class="node">
<title>232</title>
<polygon fill="#fffacd" stroke="#000000" points="490,-1120.5 327,-1120.5 327,-827.5 490,-827.5 490,-1120.5"/>
<text text-anchor="start" x="335" y="-1105.3" font-family="arial" font-size="14.00" fill="#000000">232: JUMPDEST</text>
<text text-anchor="start" x="335" y="-1090.3" font-family="arial" font-size="14.00" fill="#000000">233: DUP2</text>
<text text-anchor="start" x="335" y="-1075.3" font-family="arial" font-size="14.00" fill="#000000">234: ADD</text>
<text text-anchor="start" x="335" y="-1060.3" font-family="arial" font-size="14.00" fill="#000000">235: SWAP1</text>
<text text-anchor="start" x="335" y="-1045.3" font-family="arial" font-size="14.00" fill="#000000">236: DUP1</text>
<text text-anchor="start" x="335" y="-1030.3" font-family="arial" font-size="14.00" fill="#000000">237: DUP1</text>
<text text-anchor="start" x="335" y="-1015.3" font-family="arial" font-size="14.00" fill="#000000">238: CALLDATALOAD</text>
<text text-anchor="start" x="335" y="-1000.3" font-family="arial" font-size="14.00" fill="#000000">239: SWAP1</text>
<text text-anchor="start" x="335" y="-985.3" font-family="arial" font-size="14.00" fill="#000000">240: PUSH1 0x20</text>
<text text-anchor="start" x="335" y="-970.3" font-family="arial" font-size="14.00" fill="#000000">242: ADD</text>
<text text-anchor="start" x="335" y="-955.3" font-family="arial" font-size="14.00" fill="#000000">243: SWAP1</text>
<text text-anchor="start" x="335" y="-940.3" font-family="arial" font-size="14.00" fill="#000000">244: SWAP3</text>
<text text-anchor="start" x="335" y="-925.3" font-family="arial" font-size="14.00" fill="#000000">245: SWAP2</text>
<text text-anchor="start" x="335" y="-910.3" font-family="arial" font-size="14.00" fill="#000000">246: SWAP1</text>
<text text-anchor="start" x="335" y="-895.3" font-family="arial" font-size="14.00" fill="#000000">247: POP</text>
<text text-anchor="start" x="335" y="-880.3" font-family="arial" font-size="14.00" fill="#000000">248: POP</text>
<text text-anchor="start" x="335" y="-865.3" font-family="arial" font-size="14.00" fill="#000000">249: POP</text>
<text text-anchor="start" x="335" y="-850.3" font-family="arial" font-size="14.00" fill="#000000">250: PUSH2 0x0135</text>
<text text-anchor="start" x="335" y="-835.3" font-family="arial" font-size="14.00" fill="#000000">253: JUMP</text>
</g>
<!-- 232&#45;&gt;309 -->
<g id="edge19" class="edge">
<title>232&#45;&gt;309</title>
<path fill="none" stroke="#000000" d="M408.0997,-827.3058C408.0017,-791.3696 407.8983,-753.4782 407.8055,-719.4676"/>
<polygon fill="#000000" stroke="#000000" points="411.3044,-719.034 407.7771,-709.0437 404.3045,-719.0532 411.3044,-719.034"/>
</g>
<!-- 210&#45;&gt;228 -->
<g id="edge26" class="edge">
<title>210&#45;&gt;228</title>
<path fill="none" stroke="#000000" d="M334.8871,-1223.8296C328.1322,-1212.2192 322.1124,-1200.1492 317.5,-1188 252.6127,-1017.0849 247.3803,-798.9569 249.9587,-684.9101"/>
<polygon fill="#000000" stroke="#000000" points="253.4585,-684.9577 250.2121,-674.8725 246.4608,-684.781 253.4585,-684.9577"/>
</g>
<!-- 210&#45;&gt;232 -->
<g id="edge2" class="edge">
<title>210&#45;&gt;232</title>
<path fill="none" stroke="#000000" d="M409.2254,-1223.5455C409.1419,-1194.8291 409.0479,-1162.4653 408.9558,-1130.7946"/>
<polygon fill="#000000" stroke="#000000" points="412.4551,-1130.5314 408.926,-1120.5417 405.4552,-1130.5519 412.4551,-1130.5314"/>
</g>
<!-- 127&#45;&gt;149 -->
<g id="edge12" class="edge">
<title>127&#45;&gt;149</title>
<path fill="none" stroke="#000000" d="M732.6017,-1223.5455C733.9188,-1215.3082 735.2838,-1206.7707 736.6804,-1198.0356"/>
<polygon fill="#000000" stroke="#000000" points="740.147,-1198.5221 738.2697,-1188.0949 733.2347,-1197.4168 740.147,-1198.5221"/>
</g>
<!-- 127&#45;&gt;145 -->
<g id="edge6" class="edge">
<title>127&#45;&gt;145</title>
<path fill="none" stroke="#000000" d="M688.4736,-1223.8C685.6611,-1211.8442 683.2193,-1199.7009 681.5,-1188 635.7686,-876.7653 648.3273,-500.3456 656.7359,-340.8717"/>
<polygon fill="#000000" stroke="#000000" points="660.2416,-340.8575 657.2831,-330.6842 653.2517,-340.482 660.2416,-340.8575"/>
</g>
<!-- 88&#45;&gt;94 -->
<g id="edge21" class="edge">
<title>88&#45;&gt;94</title>
<path fill="none" stroke="#000000" d="M64.3243,-565.6628C66.8433,-507.8935 71.4194,-402.9474 74.4599,-333.2196"/>
<polygon fill="#000000" stroke="#000000" points="77.9579,-333.3403 74.8969,-323.1973 70.9645,-333.0353 77.9579,-333.3403"/>
</g>
</g>
</svg>
